<svg xmlns="http://www.w3.org/2000/svg" xmlns:xlink="http://www.w3.org/1999/xlink" width="501" height="127" viewBox="0 0 501 127">
  <defs>
    <style>
      .cls-1, .cls-5 {
        fill: none;
        stroke-miterlimit: 10;
      }

      .cls-1 {
        stroke: #000;
      }

      .cls-2 {
        clip-path: url(#clip-path);
      }

      .cls-3 {
        fill: #fff;
      }

      .cls-4 {
        fill: #046cf0;
      }

      .cls-5 {
        stroke: #fff;
        stroke-width: 3px;
      }
    </style>
    <clipPath id="clip-path">
      <path class="cls-1" d="M491.5,124.5l-482-3c-6.6,0-6-7.4-6-14l12-93a12,12,0,0,1,12-12l451,3c6.6,0,7,3.4,7,10l13,101C498.5,123.1,498.1,124.5,491.5,124.5Z"/>
    </clipPath>
  </defs>
  <title>brunsnik-station</title>
  <g id="Layer_2">
    <g>
      <g class="cls-2">
        <polygon class="cls-3" points="498.5 124.5 366.5 124.5 360.5 4.5 485.5 4.5 498.5 124.5"/>
        <polygon class="cls-4" points="366.5 124.5 0 121.36 17.07 -1 360.48 -1 366.5 124.5"/>
      </g>
      <path class="cls-1" d="M491.5,124.5l-482-3c-6.6,0-6-7.4-6-14l12-93a12,12,0,0,1,12-12l451,3c6.6,0,7,3.4,7,10l13,101C498.5,123.1,498.1,124.5,491.5,124.5Z"/>
    </g>
    <line class="cls-5" x1="6" y1="92" x2="365" y2="94"/>
  </g>
  <g id="Layer_3">
    <g>
      <path class="cls-3" d="M144.32,35.09l5.33.16c-.13,5.38-.82,10.75-1.25,16.09,2.25-1.31,4.66-2.48,7.29-2.26,3.44.28,5.93,1.27,8.11,4.1a14.68,14.68,0,0,1,2.92,10c-.15,3.78-1.21,7.45-4.15,10.22S156.09,77,152,77.1a28.94,28.94,0,0,1-5.51-.6,19.87,19.87,0,0,1-4.64-1.45C142.1,61.68,144,48.43,144.32,35.09ZM148,56.51c-.37,4.93-.57,9.83-.7,14.76a20.66,20.66,0,0,0,5.67.85,7.75,7.75,0,0,0,5.91-2.47,9.81,9.81,0,0,0,2.42-6.41,9.85,9.85,0,0,0-1.85-6.54A6.46,6.46,0,0,0,154.16,54C151.87,53.93,149.86,55.21,148,56.51Z"/>
      <path class="cls-3" d="M178.79,49.61c0,2.06,0,4.13,0,6.18.06-.1.23-.38.29-.46,1.87-2.8,4.16-6,7.69-6.18,2.75-.12,4.34,1.51,6.35,3-1,1.58-1.87,3.14-2.82,4.69-1.49-1.2-3.13-2.67-5.14-2.57a5.17,5.17,0,0,0-4.48,2.49,9.16,9.16,0,0,0-1.88,5.88c-.06,4.15,0,9.54,0,13.94-1.78,0-3.57,0-5.35,0v-27Z"/>
      <path class="cls-3" d="M214,76.57V73.11A13.4,13.4,0,0,1,210.12,76a9.36,9.36,0,0,1-4.37,1,8.05,8.05,0,0,1-4.68-1.3c-1.46-1-2.37-1.42-3.28-3.57s-1.07-4-1.07-7.38c0-3.85,0-10.68,0-15.09,1.77-.08,3.55-.07,5.33,0,0,4.51-.06,11,0,15.06.05,3,0,4.27,1.23,6.06s2.32,1.66,4.32,1.75c2.51.1,4.82-1.62,6.38-3.65,0-6.44,0-12.83,0-19.26h5.33v27Z"/>
      <path class="cls-3" d="M233.53,48.85c0,1.18,0,2.37.05,3.54,2.32-2.55,5-4.55,8.42-4.92a6.67,6.67,0,0,1,4.82,1.06,7.07,7.07,0,0,1,3.4,3.64c1,2.12,1.17,4,1.24,7.31.08,3.91.19,10.66.27,15.11-1.77.11-3.55.12-5.33.09-.12-4.55-.13-11-.28-15.09-.11-2.94-.14-4.23-1.4-6s-2.42-1.59-4.49-1.38c-2.64.27-5,2.34-6.57,4.57.08,6.49,0,12.91-.09,19.37l-5.44,0c.05-9,.09-17.94-.15-26.92C229.83,49.13,231.68,49,233.53,48.85Z"/>
      <path class="cls-3" d="M256.89,75.74c-.06-2-.11-4-.13-6a29.34,29.34,0,0,0,4.6,2.47,10.61,10.61,0,0,0,4,.93,4.5,4.5,0,0,0,2.85-1,2.31,2.31,0,0,0,1.16-2.08,2.57,2.57,0,0,0-.85-2.1,18.72,18.72,0,0,0-3.34-2.4c-2.18-1.33-5.31-3.67-6.58-5.56a7.22,7.22,0,0,1-1.53-4.9A5.87,5.87,0,0,1,259.65,50,9.15,9.15,0,0,1,266,48.36a18.44,18.44,0,0,1,7.94,2.58c0,1.81-.1,3.59-.18,5.38a18.77,18.77,0,0,0-7.54-3.26,3.5,3.5,0,0,0-2.57.52,1.87,1.87,0,0,0-1,1.8,2.5,2.5,0,0,0,.83,2,15.05,15.05,0,0,0,3,2.31l1.82,1.19c3.24,2.15,6.53,5.05,6.74,8.85.16,2.72-.71,4-2.43,5.71s-4.11,2.29-6.54,2.47a14.52,14.52,0,0,1-4.31-.38A30,30,0,0,1,256.89,75.74Z"/>
      <path class="cls-3" d="M286.12,49.66c.05,1.16.1,2.34.15,3.48,2.16-2.42,4.59-4.27,7.88-4.46a7.49,7.49,0,0,1,4.76,1.07,7,7,0,0,1,3.49,3.51c1,2.09,1.29,3.92,1.45,7.24.18,3.89.48,10.62.69,15-1.78.17-3.56.24-5.33.27-.25-4.53-.46-11-.71-15-.18-2.92-.27-4.23-1.55-6s-2.33-1.63-4.35-1.55c-2.57.11-4.72,2.11-6.15,4.28.18,6.68.17,13.32.26,20l-5.45,0c-.12-9.21-.19-18.41-.57-27.61C282.5,49.86,284.31,49.76,286.12,49.66Z"/>
      <path class="cls-3" d="M311.47,37.85a3.16,3.16,0,0,1,2.37.49,3,3,0,0,1,1.3,2,3.22,3.22,0,0,1-.49,2.36,2.9,2.9,0,0,1-2,1.31,3.13,3.13,0,0,1-2.35-.57,2.88,2.88,0,0,1-1.33-2,3.24,3.24,0,0,1,2.5-3.62Zm-.38,11.53c1.76-.2,3.51-.43,5.27-.63,1.38,9.41.62,18.26.05,27.67L311.08,76C311.54,66.9,312.46,58.45,311.09,49.38Z"/>
      <path class="cls-3" d="M324.37,35.67l5.31-.12c.36,13.62,1.95,27.15,2.18,40.79l-5.36.08C326.21,62.8,324.7,49.27,324.37,35.67ZM343.5,49.18l6.36-.1q-5.62,6.68-11.22,13.37Q346,69.13,353.12,76L346,76.1c-4.65-4.61-9.49-9-14.28-13.51C335.57,58.08,339.55,53.64,343.5,49.18Z"/>
    </g>
    <g>
      <path d="M392.18,24.92l10.56.19C402.1,50,400.3,74.87,399.8,99.78l-10.54-.17C389.66,74.69,391.55,49.84,392.18,24.92Z"/>
      <path d="M442.1,91.82c9.09.64,18.21,1.65,27.33,2.3-.11,3.36-.21,6.73-.32,10.09q-22.92-1.58-45.84-3.22a5.52,5.52,0,0,1,.06-.77c1.1-1.14,3.55-3.84,4.45-4.82a233.56,233.56,0,0,0,17.6-22A81.36,81.36,0,0,0,454,58.1a21.76,21.76,0,0,0,1.88-10c0-4.55-1.14-6.94-4.18-9.51s-6.19-2.67-10.15-2.23A19.56,19.56,0,0,0,432.83,40a29,29,0,0,0-7.12,7.71c-.3-4.46-.63-8.91-.89-13.42,5-4.21,11-7.8,17.38-8.46,6.72-.7,11.92.35,16.93,4.53S466,39.17,466.42,46A27.87,27.87,0,0,1,465,56.25a58.41,58.41,0,0,1-5.8,13.17,134.07,134.07,0,0,1-14.74,19.83C444,89.74,442.63,91.27,442.1,91.82Z"/>
    </g>
  </g>
</svg>
